<svg width="1711" height="279" viewBox="0 0 1711 279" fill="none" xmlns="http://www.w3.org/2000/svg">
<path d="M38 220C34.3333 220 31.25 218.75 28.75 216.25C26.25 213.75 25 210.667 25 207V37.75C25 33.9167 26.25 30.8333 28.75 28.5C31.25 26 34.3333 24.75 38 24.75H97.75C109.083 24.75 119 27 127.5 31.5C136.167 35.8333 142.917 41.9167 147.75 49.75C152.75 57.5833 155.25 66.5833 155.25 76.75C155.25 84.9167 153 92.3333 148.5 99C144.167 105.5 138.167 110.667 130.5 114.5C141.5 117.167 150.333 122.417 157 130.25C163.667 138.083 167 148.333 167 161C167 172.5 164.25 182.667 158.75 191.5C153.417 200.333 145.917 207.333 136.25 212.5C126.583 217.5 115.5 220 103 220H38ZM51 196H103C110.667 196 117.417 194.667 123.25 192C129.083 189.333 133.667 185.417 137 180.25C140.333 175.083 142 168.667 142 161C142 153.833 140.333 147.917 137 143.25C133.667 138.583 129.083 135.083 123.25 132.75C117.417 130.25 110.667 129 103 129H51V196ZM51 105H97.75C107.25 105 115 102.667 121 98C127.167 93.3333 130.25 86.25 130.25 76.75C130.25 67.25 127.167 60.25 121 55.75C115 51.0833 107.25 48.75 97.75 48.75H51V105ZM240.664 221.25C229.164 221.25 218.831 218.833 209.664 214C200.664 209 193.497 201.75 188.164 192.25C182.997 182.75 180.414 171.083 180.414 157.25V95.75C180.414 92.0833 181.581 89.0833 183.914 86.75C186.414 84.25 189.497 83 193.164 83C196.831 83 199.831 84.25 202.164 86.75C204.664 89.0833 205.914 92.0833 205.914 95.75V157.25C205.914 166.583 207.664 174.333 211.164 180.5C214.664 186.5 219.414 191 225.414 194C231.414 196.833 238.164 198.25 245.664 198.25C252.831 198.25 259.164 196.833 264.664 194C270.331 191.167 274.831 187.333 278.164 182.5C281.497 177.667 283.164 172.25 283.164 166.25H298.914C298.914 176.583 296.331 185.917 291.164 194.25C286.164 202.583 279.247 209.167 270.414 214C261.747 218.833 251.831 221.25 240.664 221.25ZM295.914 220C292.247 220 289.164 218.833 286.664 216.5C284.331 214 283.164 210.917 283.164 207.25V95.75C283.164 91.9167 284.331 88.8333 286.664 86.5C289.164 84.1667 292.247 83 295.914 83C299.747 83 302.831 84.1667 305.164 86.5C307.497 88.8333 308.664 91.9167 308.664 95.75V207.25C308.664 210.917 307.497 214 305.164 216.5C302.831 218.833 299.747 220 295.914 220ZM390.574 221C378.074 221 366.991 218.083 357.324 212.25C347.824 206.25 340.324 198.083 334.824 187.75C329.324 177.25 326.574 165.25 326.574 151.75C326.574 138.083 329.491 126.083 335.324 115.75C341.324 105.25 349.491 97.0833 359.824 91.25C370.158 85.25 382.074 82.25 395.574 82.25C408.908 82.25 420.741 85.25 431.074 91.25C441.408 97.0833 449.491 105.25 455.324 115.75C461.324 126.083 464.324 138.083 464.324 151.75H449.574C449.574 165.25 446.991 177.25 441.824 187.75C436.824 198.083 429.908 206.25 421.074 212.25C412.241 218.083 402.074 221 390.574 221ZM395.074 276.75C383.241 276.75 372.158 274.417 361.824 269.75C351.491 265.083 342.741 258.25 335.574 249.25C333.408 246.417 332.574 243.5 333.074 240.5C333.741 237.5 335.408 235.083 338.074 233.25C341.074 231.25 344.158 230.583 347.324 231.25C350.658 231.917 353.324 233.583 355.324 236.25C359.824 241.917 365.491 246.333 372.324 249.5C379.158 252.667 386.908 254.25 395.574 254.25C403.574 254.25 410.908 252.333 417.574 248.5C424.408 244.667 429.824 239 433.824 231.5C437.824 224 439.824 214.833 439.824 204V168.5L448.074 146.5L464.324 151.75V205.75C464.324 218.917 461.408 230.833 455.574 241.5C449.741 252.333 441.574 260.917 431.074 267.25C420.741 273.583 408.741 276.75 395.074 276.75ZM395.574 198.5C404.241 198.5 411.908 196.5 418.574 192.5C425.241 188.5 430.408 183 434.074 176C437.908 169 439.824 160.917 439.824 151.75C439.824 142.583 437.908 134.5 434.074 127.5C430.408 120.333 425.241 114.75 418.574 110.75C411.908 106.75 404.241 104.75 395.574 104.75C386.908 104.75 379.241 106.75 372.574 110.75C365.908 114.75 360.658 120.333 356.824 127.5C352.991 134.5 351.074 142.583 351.074 151.75C351.074 160.917 352.991 169 356.824 176C360.658 183 365.908 188.5 372.574 192.5C379.241 196.5 386.908 198.5 395.574 198.5ZM395.574 68.75C388.074 68.75 381.241 67.4167 375.074 64.75C368.908 61.9167 363.991 58.1667 360.324 53.5C356.658 48.6667 354.824 43.3333 354.824 37.5C354.824 33.8333 355.908 30.8333 358.074 28.5C360.241 26 363.158 24.75 366.824 24.75C369.824 24.75 372.574 25.6667 375.074 27.5C377.574 29.3333 378.824 31.8333 378.824 35C378.824 38.8333 380.574 42 384.074 44.5C387.741 47 391.574 48.25 395.574 48.25C400.741 48.25 404.741 47 407.574 44.5C410.574 42 412.074 38.8333 412.074 35C412.074 31.8333 413.324 29.3333 415.824 27.5C418.324 25.6667 421.158 24.75 424.324 24.75C427.991 24.75 430.824 26 432.824 28.5C434.991 30.8333 436.074 33.8333 436.074 37.5C436.074 43.3333 434.241 48.6667 430.574 53.5C426.908 58.1667 421.991 61.9167 415.824 64.75C409.824 67.4167 403.074 68.75 395.574 68.75ZM494.525 134.5C494.525 124.5 496.942 115.583 501.775 107.75C506.775 99.75 513.442 93.4167 521.775 88.75C530.109 84.0833 539.275 81.75 549.275 81.75C559.275 81.75 566.692 83.4167 571.525 86.75C576.525 89.9167 578.442 93.75 577.275 98.25C576.775 100.583 575.775 102.417 574.275 103.75C572.942 104.917 571.359 105.667 569.525 106C567.692 106.333 565.692 106.25 563.525 105.75C552.859 103.583 543.275 103.417 534.775 105.25C526.275 107.083 519.525 110.5 514.525 115.5C509.692 120.5 507.275 126.833 507.275 134.5H494.525ZM494.775 220C490.775 220 487.692 219 485.525 217C483.359 214.833 482.275 211.667 482.275 207.5V95.75C482.275 91.75 483.359 88.6667 485.525 86.5C487.692 84.3333 490.775 83.25 494.775 83.25C498.942 83.25 502.025 84.3333 504.025 86.5C506.192 88.5 507.275 91.5833 507.275 95.75V207.5C507.275 211.5 506.192 214.583 504.025 216.75C502.025 218.917 498.942 220 494.775 220ZM630.848 221C618.681 221 607.764 218 598.098 212C588.431 205.833 580.764 197.583 575.098 187.25C569.598 176.75 566.848 164.917 566.848 151.75C566.848 138.583 569.848 126.75 575.848 116.25C582.014 105.75 590.264 97.5 600.598 91.5C611.098 85.3333 622.848 82.25 635.848 82.25C648.848 82.25 660.514 85.3333 670.848 91.5C681.181 97.5 689.348 105.75 695.348 116.25C701.514 126.75 704.598 138.583 704.598 151.75H694.848C694.848 164.917 692.014 176.75 686.348 187.25C680.848 197.583 673.264 205.833 663.598 212C653.931 218 643.014 221 630.848 221ZM635.848 198.5C644.348 198.5 651.931 196.5 658.598 192.5C665.264 188.333 670.514 182.75 674.348 175.75C678.181 168.583 680.098 160.583 680.098 151.75C680.098 142.75 678.181 134.75 674.348 127.75C670.514 120.583 665.264 115 658.598 111C651.931 106.833 644.348 104.75 635.848 104.75C627.514 104.75 619.931 106.833 613.098 111C606.431 115 601.098 120.583 597.098 127.75C593.264 134.75 591.348 142.75 591.348 151.75C591.348 160.583 593.264 168.583 597.098 175.75C601.098 182.75 606.431 188.333 613.098 192.5C619.931 196.5 627.514 198.5 635.848 198.5ZM691.848 220.25C688.181 220.25 685.098 219.083 682.598 216.75C680.264 214.25 679.098 211.167 679.098 207.5V169.25L683.848 142.75L704.598 151.75V207.5C704.598 211.167 703.348 214.25 700.848 216.75C698.514 219.083 695.514 220.25 691.848 220.25ZM865.791 222.5C852.291 222.5 839.624 220 827.791 215C816.124 209.833 805.874 202.75 797.041 193.75C788.374 184.583 781.541 173.917 776.541 161.75C771.708 149.583 769.291 136.417 769.291 122.25C769.291 108.25 771.708 95.25 776.541 83.25C781.541 71.0833 788.374 60.5 797.041 51.5C805.874 42.3333 816.124 35.1667 827.791 30C839.458 24.8333 852.124 22.25 865.791 22.25C878.624 22.25 889.624 23.9167 898.791 27.25C908.124 30.5833 917.458 36.0833 926.791 43.75C928.124 44.75 929.124 45.8333 929.791 47C930.624 48 931.124 49.0833 931.291 50.25C931.624 51.25 931.791 52.5 931.791 54C931.791 57.1667 930.624 59.8333 928.291 62C926.124 64.1667 923.374 65.3333 920.041 65.5C916.874 65.6667 913.874 64.5833 911.041 62.25C904.874 56.9167 898.458 52.8333 891.791 50C885.291 47.1667 876.624 45.75 865.791 45.75C855.958 45.75 846.708 47.75 838.041 51.75C829.374 55.75 821.708 61.25 815.041 68.25C808.541 75.25 803.458 83.4167 799.791 92.75C796.124 101.917 794.291 111.75 794.291 122.25C794.291 132.917 796.124 142.917 799.791 152.25C803.458 161.417 808.541 169.5 815.041 176.5C821.708 183.5 829.374 189 838.041 193C846.708 196.833 855.958 198.75 865.791 198.75C874.291 198.75 882.291 197.333 889.791 194.5C897.458 191.5 904.791 187.417 911.791 182.25C914.791 180.083 917.708 179.167 920.541 179.5C923.541 179.667 926.041 180.833 928.041 183C930.041 185 931.041 187.833 931.041 191.5C931.041 193.167 930.708 194.833 930.041 196.5C929.541 198 928.541 199.417 927.041 200.75C918.208 208.083 908.624 213.583 898.291 217.25C887.958 220.75 877.124 222.5 865.791 222.5ZM931.041 191.5L906.041 186.5V141.75H871.541C867.874 141.75 864.791 140.667 862.291 138.5C859.791 136.333 858.541 133.583 858.541 130.25C858.541 126.917 859.791 124.167 862.291 122C864.791 119.833 867.874 118.75 871.541 118.75H918.291C922.124 118.75 925.208 120 927.541 122.5C929.874 124.833 931.041 127.917 931.041 131.75V191.5ZM1007.63 221.25C996.127 221.25 985.794 218.833 976.627 214C967.627 209 960.46 201.75 955.127 192.25C949.96 182.75 947.377 171.083 947.377 157.25V95.75C947.377 92.0833 948.544 89.0833 950.877 86.75C953.377 84.25 956.46 83 960.127 83C963.794 83 966.794 84.25 969.127 86.75C971.627 89.0833 972.877 92.0833 972.877 95.75V157.25C972.877 166.583 974.627 174.333 978.127 180.5C981.627 186.5 986.377 191 992.377 194C998.377 196.833 1005.13 198.25 1012.63 198.25C1019.79 198.25 1026.13 196.833 1031.63 194C1037.29 191.167 1041.79 187.333 1045.13 182.5C1048.46 177.667 1050.13 172.25 1050.13 166.25H1065.88C1065.88 176.583 1063.29 185.917 1058.13 194.25C1053.13 202.583 1046.21 209.167 1037.38 214C1028.71 218.833 1018.79 221.25 1007.63 221.25ZM1062.88 220C1059.21 220 1056.13 218.833 1053.63 216.5C1051.29 214 1050.13 210.917 1050.13 207.25V95.75C1050.13 91.9167 1051.29 88.8333 1053.63 86.5C1056.13 84.1667 1059.21 83 1062.88 83C1066.71 83 1069.79 84.1667 1072.13 86.5C1074.46 88.8333 1075.63 91.9167 1075.63 95.75V207.25C1075.63 210.917 1074.46 214 1072.13 216.5C1069.79 218.833 1066.71 220 1062.88 220ZM985.127 62.25C980.96 62.25 977.377 60.8333 974.377 58C971.377 55 969.877 51.4167 969.877 47.25C969.877 43.25 971.377 39.75 974.377 36.75C977.377 33.75 980.96 32.25 985.127 32.25C989.127 32.25 992.627 33.75 995.627 36.75C998.627 39.75 1000.13 43.25 1000.13 47.25C1000.13 51.4167 998.627 55 995.627 58C992.627 60.8333 989.127 62.25 985.127 62.25ZM1040.63 62.25C1036.46 62.25 1032.88 60.8333 1029.88 58C1027.04 55 1025.63 51.4167 1025.63 47.25C1025.63 43.25 1027.04 39.75 1029.88 36.75C1032.88 33.75 1036.46 32.25 1040.63 32.25C1044.63 32.25 1048.13 33.75 1051.13 36.75C1054.13 39.75 1055.63 43.25 1055.63 47.25C1055.63 51.4167 1054.13 55 1051.13 58C1048.13 60.8333 1044.63 62.25 1040.63 62.25ZM1133.04 220C1125.7 220 1119.2 218 1113.54 214C1107.87 210 1103.45 204.583 1100.29 197.75C1097.12 190.75 1095.54 182.75 1095.54 173.75V37.25C1095.54 33.5833 1096.7 30.5833 1099.04 28.25C1101.37 25.9167 1104.37 24.75 1108.04 24.75C1111.7 24.75 1114.7 25.9167 1117.04 28.25C1119.37 30.5833 1120.54 33.5833 1120.54 37.25V173.75C1120.54 179.917 1121.7 185 1124.04 189C1126.37 193 1129.37 195 1133.04 195H1139.29C1142.62 195 1145.29 196.167 1147.29 198.5C1149.45 200.833 1150.54 203.833 1150.54 207.5C1150.54 211.167 1148.95 214.167 1145.79 216.5C1142.62 218.833 1138.54 220 1133.54 220H1133.04ZM1209.92 221C1196.59 221 1184.67 218 1174.17 212C1163.84 205.833 1155.67 197.583 1149.67 187.25C1143.84 176.75 1140.92 164.917 1140.92 151.75C1140.92 138.25 1143.84 126.25 1149.67 115.75C1155.5 105.25 1163.5 97.0833 1173.67 91.25C1183.84 85.25 1195.5 82.25 1208.67 82.25C1218.5 82.25 1227.5 84.1667 1235.67 88C1243.84 91.6667 1251.17 97.25 1257.67 104.75C1260 107.417 1260.84 110.167 1260.17 113C1259.5 115.833 1257.67 118.333 1254.67 120.5C1252.34 122.167 1249.75 122.75 1246.92 122.25C1244.09 121.583 1241.5 120.083 1239.17 117.75C1231 109.083 1220.84 104.75 1208.67 104.75C1200.17 104.75 1192.67 106.75 1186.17 110.75C1179.67 114.583 1174.59 120 1170.92 127C1167.25 134 1165.42 142.25 1165.42 151.75C1165.42 160.75 1167.25 168.75 1170.92 175.75C1174.75 182.75 1180 188.333 1186.67 192.5C1193.34 196.5 1201.09 198.5 1209.92 198.5C1215.75 198.5 1220.84 197.833 1225.17 196.5C1229.67 195 1233.75 192.75 1237.42 189.75C1240.09 187.583 1242.84 186.417 1245.67 186.25C1248.5 185.917 1251 186.667 1253.17 188.5C1256 190.833 1257.59 193.5 1257.92 196.5C1258.25 199.333 1257.25 201.917 1254.92 204.25C1242.92 215.417 1227.92 221 1209.92 221ZM1335.57 221.25C1324.07 221.25 1313.73 218.833 1304.57 214C1295.57 209 1288.4 201.75 1283.07 192.25C1277.9 182.75 1275.32 171.083 1275.32 157.25V95.75C1275.32 92.0833 1276.48 89.0833 1278.82 86.75C1281.32 84.25 1284.4 83 1288.07 83C1291.73 83 1294.73 84.25 1297.07 86.75C1299.57 89.0833 1300.82 92.0833 1300.82 95.75V157.25C1300.82 166.583 1302.57 174.333 1306.07 180.5C1309.57 186.5 1314.32 191 1320.32 194C1326.32 196.833 1333.07 198.25 1340.57 198.25C1347.73 198.25 1354.07 196.833 1359.57 194C1365.23 191.167 1369.73 187.333 1373.07 182.5C1376.4 177.667 1378.07 172.25 1378.07 166.25H1393.82C1393.82 176.583 1391.23 185.917 1386.07 194.25C1381.07 202.583 1374.15 209.167 1365.32 214C1356.65 218.833 1346.73 221.25 1335.57 221.25ZM1390.82 220C1387.15 220 1384.07 218.833 1381.57 216.5C1379.23 214 1378.07 210.917 1378.07 207.25V95.75C1378.07 91.9167 1379.23 88.8333 1381.57 86.5C1384.07 84.1667 1387.15 83 1390.82 83C1394.65 83 1397.73 84.1667 1400.07 86.5C1402.4 88.8333 1403.57 91.9167 1403.57 95.75V207.25C1403.57 210.917 1402.4 214 1400.07 216.5C1397.73 218.833 1394.65 220 1390.82 220ZM1313.07 62.25C1308.9 62.25 1305.32 60.8333 1302.32 58C1299.32 55 1297.82 51.4167 1297.82 47.25C1297.82 43.25 1299.32 39.75 1302.32 36.75C1305.32 33.75 1308.9 32.25 1313.07 32.25C1317.07 32.25 1320.57 33.75 1323.57 36.75C1326.57 39.75 1328.07 43.25 1328.07 47.25C1328.07 51.4167 1326.57 55 1323.57 58C1320.57 60.8333 1317.07 62.25 1313.07 62.25ZM1368.57 62.25C1364.4 62.25 1360.82 60.8333 1357.82 58C1354.98 55 1353.57 51.4167 1353.57 47.25C1353.57 43.25 1354.98 39.75 1357.82 36.75C1360.82 33.75 1364.4 32.25 1368.57 32.25C1372.57 32.25 1376.07 33.75 1379.07 36.75C1382.07 39.75 1383.57 43.25 1383.57 47.25C1383.57 51.4167 1382.07 55 1379.07 58C1376.07 60.8333 1372.57 62.25 1368.57 62.25ZM1460.98 220C1453.64 220 1447.14 218 1441.48 214C1435.81 210 1431.39 204.583 1428.23 197.75C1425.06 190.75 1423.48 182.75 1423.48 173.75V37.25C1423.48 33.5833 1424.64 30.5833 1426.98 28.25C1429.31 25.9167 1432.31 24.75 1435.98 24.75C1439.64 24.75 1442.64 25.9167 1444.98 28.25C1447.31 30.5833 1448.48 33.5833 1448.48 37.25V173.75C1448.48 179.917 1449.64 185 1451.98 189C1454.31 193 1457.31 195 1460.98 195H1467.23C1470.56 195 1473.23 196.167 1475.23 198.5C1477.39 200.833 1478.48 203.833 1478.48 207.5C1478.48 211.167 1476.89 214.167 1473.73 216.5C1470.56 218.833 1466.48 220 1461.48 220H1460.98ZM1540.11 221C1526.28 221 1513.94 218.083 1503.11 212.25C1492.44 206.25 1484.03 198.083 1477.86 187.75C1471.86 177.25 1468.86 165.25 1468.86 151.75C1468.86 138.083 1471.69 126.083 1477.36 115.75C1483.19 105.25 1491.19 97.0833 1501.36 91.25C1511.53 85.25 1523.19 82.25 1536.36 82.25C1549.36 82.25 1560.53 85.1667 1569.86 91C1579.19 96.6667 1586.28 104.583 1591.11 114.75C1596.11 124.75 1598.61 136.333 1598.61 149.5C1598.61 152.667 1597.53 155.333 1595.36 157.5C1593.19 159.5 1590.44 160.5 1587.11 160.5H1486.36V140.5H1586.36L1576.11 147.5C1575.94 139.167 1574.28 131.75 1571.11 125.25C1567.94 118.583 1563.44 113.333 1557.61 109.5C1551.78 105.667 1544.69 103.75 1536.36 103.75C1526.86 103.75 1518.69 105.833 1511.86 110C1505.19 114.167 1500.11 119.917 1496.61 127.25C1493.11 134.417 1491.36 142.583 1491.36 151.75C1491.36 160.917 1493.44 169.083 1497.61 176.25C1501.78 183.417 1507.53 189.083 1514.86 193.25C1522.19 197.417 1530.61 199.5 1540.11 199.5C1545.28 199.5 1550.53 198.583 1555.86 196.75C1561.36 194.75 1565.78 192.5 1569.11 190C1571.61 188.167 1574.28 187.25 1577.11 187.25C1580.11 187.083 1582.69 187.917 1584.86 189.75C1587.69 192.25 1589.19 195 1589.36 198C1589.53 201 1588.19 203.583 1585.36 205.75C1579.69 210.25 1572.61 213.917 1564.11 216.75C1555.78 219.583 1547.78 221 1540.11 221ZM1623.38 134.5C1623.38 124.5 1625.8 115.583 1630.63 107.75C1635.63 99.75 1642.3 93.4167 1650.63 88.75C1658.97 84.0833 1668.13 81.75 1678.13 81.75C1688.13 81.75 1695.55 83.4167 1700.38 86.75C1705.38 89.9167 1707.3 93.75 1706.13 98.25C1705.63 100.583 1704.63 102.417 1703.13 103.75C1701.8 104.917 1700.22 105.667 1698.38 106C1696.55 106.333 1694.55 106.25 1692.38 105.75C1681.72 103.583 1672.13 103.417 1663.63 105.25C1655.13 107.083 1648.38 110.5 1643.38 115.5C1638.55 120.5 1636.13 126.833 1636.13 134.5H1623.38ZM1623.63 220C1619.63 220 1616.55 219 1614.38 217C1612.22 214.833 1611.13 211.667 1611.13 207.5V95.75C1611.13 91.75 1612.22 88.6667 1614.38 86.5C1616.55 84.3333 1619.63 83.25 1623.63 83.25C1627.8 83.25 1630.88 84.3333 1632.88 86.5C1635.05 88.5 1636.13 91.5833 1636.13 95.75V207.5C1636.13 211.5 1635.05 214.583 1632.88 216.75C1630.88 218.917 1627.8 220 1623.63 220Z" fill="#9888FA"/>
<path d="M38 220C34.3333 220 31.25 218.75 28.75 216.25C26.25 213.75 25 210.667 25 207V37.75C25 33.9167 26.25 30.8333 28.75 28.5C31.25 26 34.3333 24.75 38 24.75H97.75C109.083 24.75 119 27 127.5 31.5C136.167 35.8333 142.917 41.9167 147.75 49.75C152.75 57.5833 155.25 66.5833 155.25 76.75C155.25 84.9167 153 92.3333 148.5 99C144.167 105.5 138.167 110.667 130.5 114.5C141.5 117.167 150.333 122.417 157 130.25C163.667 138.083 167 148.333 167 161C167 172.5 164.25 182.667 158.75 191.5C153.417 200.333 145.917 207.333 136.25 212.5C126.583 217.5 115.5 220 103 220H38ZM51 196H103C110.667 196 117.417 194.667 123.25 192C129.083 189.333 133.667 185.417 137 180.25C140.333 175.083 142 168.667 142 161C142 153.833 140.333 147.917 137 143.25C133.667 138.583 129.083 135.083 123.25 132.75C117.417 130.25 110.667 129 103 129H51V196ZM51 105H97.75C107.25 105 115 102.667 121 98C127.167 93.3333 130.25 86.25 130.25 76.75C130.25 67.25 127.167 60.25 121 55.75C115 51.0833 107.25 48.75 97.75 48.75H51V105ZM240.664 221.25C229.164 221.25 218.831 218.833 209.664 214C200.664 209 193.497 201.75 188.164 192.25C182.997 182.75 180.414 171.083 180.414 157.25V95.75C180.414 92.0833 181.581 89.0833 183.914 86.75C186.414 84.25 189.497 83 193.164 83C196.831 83 199.831 84.25 202.164 86.75C204.664 89.0833 205.914 92.0833 205.914 95.75V157.25C205.914 166.583 207.664 174.333 211.164 180.5C214.664 186.5 219.414 191 225.414 194C231.414 196.833 238.164 198.25 245.664 198.25C252.831 198.25 259.164 196.833 264.664 194C270.331 191.167 274.831 187.333 278.164 182.5C281.497 177.667 283.164 172.25 283.164 166.25H298.914C298.914 176.583 296.331 185.917 291.164 194.25C286.164 202.583 279.247 209.167 270.414 214C261.747 218.833 251.831 221.25 240.664 221.25ZM295.914 220C292.247 220 289.164 218.833 286.664 216.5C284.331 214 283.164 210.917 283.164 207.25V95.75C283.164 91.9167 284.331 88.8333 286.664 86.5C289.164 84.1667 292.247 83 295.914 83C299.747 83 302.831 84.1667 305.164 86.5C307.497 88.8333 308.664 91.9167 308.664 95.75V207.25C308.664 210.917 307.497 214 305.164 216.5C302.831 218.833 299.747 220 295.914 220ZM390.574 221C378.074 221 366.991 218.083 357.324 212.25C347.824 206.25 340.324 198.083 334.824 187.75C329.324 177.25 326.574 165.25 326.574 151.75C326.574 138.083 329.491 126.083 335.324 115.75C341.324 105.25 349.491 97.0833 359.824 91.25C370.158 85.25 382.074 82.25 395.574 82.25C408.908 82.25 420.741 85.25 431.074 91.25C441.408 97.0833 449.491 105.25 455.324 115.75C461.324 126.083 464.324 138.083 464.324 151.75H449.574C449.574 165.25 446.991 177.25 441.824 187.75C436.824 198.083 429.908 206.25 421.074 212.25C412.241 218.083 402.074 221 390.574 221ZM395.074 276.75C383.241 276.75 372.158 274.417 361.824 269.75C351.491 265.083 342.741 258.25 335.574 249.25C333.408 246.417 332.574 243.5 333.074 240.5C333.741 237.5 335.408 235.083 338.074 233.25C341.074 231.25 344.158 230.583 347.324 231.25C350.658 231.917 353.324 233.583 355.324 236.25C359.824 241.917 365.491 246.333 372.324 249.5C379.158 252.667 386.908 254.25 395.574 254.25C403.574 254.25 410.908 252.333 417.574 248.5C424.408 244.667 429.824 239 433.824 231.5C437.824 224 439.824 214.833 439.824 204V168.5L448.074 146.5L464.324 151.75V205.75C464.324 218.917 461.408 230.833 455.574 241.5C449.741 252.333 441.574 260.917 431.074 267.25C420.741 273.583 408.741 276.75 395.074 276.75ZM395.574 198.5C404.241 198.5 411.908 196.5 418.574 192.5C425.241 188.5 430.408 183 434.074 176C437.908 169 439.824 160.917 439.824 151.75C439.824 142.583 437.908 134.5 434.074 127.5C430.408 120.333 425.241 114.75 418.574 110.75C411.908 106.75 404.241 104.75 395.574 104.75C386.908 104.75 379.241 106.75 372.574 110.75C365.908 114.75 360.658 120.333 356.824 127.5C352.991 134.5 351.074 142.583 351.074 151.75C351.074 160.917 352.991 169 356.824 176C360.658 183 365.908 188.5 372.574 192.5C379.241 196.5 386.908 198.5 395.574 198.5ZM494.525 134.5C494.525 124.5 496.942 115.583 501.775 107.75C506.775 99.75 513.442 93.4167 521.775 88.75C530.109 84.0833 539.275 81.75 549.275 81.75C559.275 81.75 566.692 83.4167 571.525 86.75C576.525 89.9167 578.442 93.75 577.275 98.25C576.775 100.583 575.775 102.417 574.275 103.75C572.942 104.917 571.359 105.667 569.525 106C567.692 106.333 565.692 106.25 563.525 105.75C552.859 103.583 543.275 103.417 534.775 105.25C526.275 107.083 519.525 110.5 514.525 115.5C509.692 120.5 507.275 126.833 507.275 134.5H494.525ZM494.775 220C490.775 220 487.692 219 485.525 217C483.359 214.833 482.275 211.667 482.275 207.5V95.75C482.275 91.75 483.359 88.6667 485.525 86.5C487.692 84.3333 490.775 83.25 494.775 83.25C498.942 83.25 502.025 84.3333 504.025 86.5C506.192 88.5 507.275 91.5833 507.275 95.75V207.5C507.275 211.5 506.192 214.583 504.025 216.75C502.025 218.917 498.942 220 494.775 220ZM630.848 221C618.681 221 607.764 218 598.098 212C588.431 205.833 580.764 197.583 575.098 187.25C569.598 176.75 566.848 164.917 566.848 151.75C566.848 138.583 569.848 126.75 575.848 116.25C582.014 105.75 590.264 97.5 600.598 91.5C611.098 85.3333 622.848 82.25 635.848 82.25C648.848 82.25 660.514 85.3333 670.848 91.5C681.181 97.5 689.348 105.75 695.348 116.25C701.514 126.75 704.598 138.583 704.598 151.75H694.848C694.848 164.917 692.014 176.75 686.348 187.25C680.848 197.583 673.264 205.833 663.598 212C653.931 218 643.014 221 630.848 221ZM635.848 198.5C644.348 198.5 651.931 196.5 658.598 192.5C665.264 188.333 670.514 182.75 674.348 175.75C678.181 168.583 680.098 160.583 680.098 151.75C680.098 142.75 678.181 134.75 674.348 127.75C670.514 120.583 665.264 115 658.598 111C651.931 106.833 644.348 104.75 635.848 104.75C627.514 104.75 619.931 106.833 613.098 111C606.431 115 601.098 120.583 597.098 127.75C593.264 134.75 591.348 142.75 591.348 151.75C591.348 160.583 593.264 168.583 597.098 175.75C601.098 182.75 606.431 188.333 613.098 192.5C619.931 196.5 627.514 198.5 635.848 198.5ZM691.848 220.25C688.181 220.25 685.098 219.083 682.598 216.75C680.264 214.25 679.098 211.167 679.098 207.5V169.25L683.848 142.75L704.598 151.75V207.5C704.598 211.167 703.348 214.25 700.848 216.75C698.514 219.083 695.514 220.25 691.848 220.25ZM865.791 222.5C852.291 222.5 839.624 220 827.791 215C816.124 209.833 805.874 202.75 797.041 193.75C788.374 184.583 781.541 173.917 776.541 161.75C771.708 149.583 769.291 136.417 769.291 122.25C769.291 108.25 771.708 95.25 776.541 83.25C781.541 71.0833 788.374 60.5 797.041 51.5C805.874 42.3333 816.124 35.1667 827.791 30C839.458 24.8333 852.124 22.25 865.791 22.25C878.624 22.25 889.624 23.9167 898.791 27.25C908.124 30.5833 917.458 36.0833 926.791 43.75C928.124 44.75 929.124 45.8333 929.791 47C930.624 48 931.124 49.0833 931.291 50.25C931.624 51.25 931.791 52.5 931.791 54C931.791 57.1667 930.624 59.8333 928.291 62C926.124 64.1667 923.374 65.3333 920.041 65.5C916.874 65.6667 913.874 64.5833 911.041 62.25C904.874 56.9167 898.458 52.8333 891.791 50C885.291 47.1667 876.624 45.75 865.791 45.75C855.958 45.75 846.708 47.75 838.041 51.75C829.374 55.75 821.708 61.25 815.041 68.25C808.541 75.25 803.458 83.4167 799.791 92.75C796.124 101.917 794.291 111.75 794.291 122.25C794.291 132.917 796.124 142.917 799.791 152.25C803.458 161.417 808.541 169.5 815.041 176.5C821.708 183.5 829.374 189 838.041 193C846.708 196.833 855.958 198.75 865.791 198.75C874.291 198.75 882.291 197.333 889.791 194.5C897.458 191.5 904.791 187.417 911.791 182.25C914.791 180.083 917.708 179.167 920.541 179.5C923.541 179.667 926.041 180.833 928.041 183C930.041 185 931.041 187.833 931.041 191.5C931.041 193.167 930.708 194.833 930.041 196.5C929.541 198 928.541 199.417 927.041 200.75C918.208 208.083 908.624 213.583 898.291 217.25C887.958 220.75 877.124 222.5 865.791 222.5ZM931.041 191.5L906.041 186.5V141.75H871.541C867.874 141.75 864.791 140.667 862.291 138.5C859.791 136.333 858.541 133.583 858.541 130.25C858.541 126.917 859.791 124.167 862.291 122C864.791 119.833 867.874 118.75 871.541 118.75H918.291C922.124 118.75 925.208 120 927.541 122.5C929.874 124.833 931.041 127.917 931.041 131.75V191.5ZM1007.63 221.25C996.127 221.25 985.794 218.833 976.627 214C967.627 209 960.46 201.75 955.127 192.25C949.96 182.75 947.377 171.083 947.377 157.25V95.75C947.377 92.0833 948.544 89.0833 950.877 86.75C953.377 84.25 956.46 83 960.127 83C963.794 83 966.794 84.25 969.127 86.75C971.627 89.0833 972.877 92.0833 972.877 95.75V157.25C972.877 166.583 974.627 174.333 978.127 180.5C981.627 186.5 986.377 191 992.377 194C998.377 196.833 1005.13 198.25 1012.63 198.25C1019.79 198.25 1026.13 196.833 1031.63 194C1037.29 191.167 1041.79 187.333 1045.13 182.5C1048.46 177.667 1050.13 172.25 1050.13 166.25H1065.88C1065.88 176.583 1063.29 185.917 1058.13 194.25C1053.13 202.583 1046.21 209.167 1037.38 214C1028.71 218.833 1018.79 221.25 1007.63 221.25ZM1062.88 220C1059.21 220 1056.13 218.833 1053.63 216.5C1051.29 214 1050.13 210.917 1050.13 207.25V95.75C1050.13 91.9167 1051.29 88.8333 1053.63 86.5C1056.13 84.1667 1059.21 83 1062.88 83C1066.71 83 1069.79 84.1667 1072.13 86.5C1074.46 88.8333 1075.63 91.9167 1075.63 95.75V207.25C1075.63 210.917 1074.46 214 1072.13 216.5C1069.79 218.833 1066.71 220 1062.88 220ZM1133.04 220C1125.7 220 1119.2 218 1113.54 214C1107.87 210 1103.45 204.583 1100.29 197.75C1097.12 190.75 1095.54 182.75 1095.54 173.75V37.25C1095.54 33.5833 1096.7 30.5833 1099.04 28.25C1101.37 25.9167 1104.37 24.75 1108.04 24.75C1111.7 24.75 1114.7 25.9167 1117.04 28.25C1119.37 30.5833 1120.54 33.5833 1120.54 37.25V173.75C1120.54 179.917 1121.7 185 1124.04 189C1126.37 193 1129.37 195 1133.04 195H1139.29C1142.62 195 1145.29 196.167 1147.29 198.5C1149.45 200.833 1150.54 203.833 1150.54 207.5C1150.54 211.167 1148.95 214.167 1145.79 216.5C1142.62 218.833 1138.54 220 1133.54 220H1133.04ZM1209.92 221C1196.59 221 1184.67 218 1174.17 212C1163.84 205.833 1155.67 197.583 1149.67 187.25C1143.84 176.75 1140.92 164.917 1140.92 151.75C1140.92 138.25 1143.84 126.25 1149.67 115.75C1155.5 105.25 1163.5 97.0833 1173.67 91.25C1183.84 85.25 1195.5 82.25 1208.67 82.25C1218.5 82.25 1227.5 84.1667 1235.67 88C1243.84 91.6667 1251.17 97.25 1257.67 104.75C1260 107.417 1260.84 110.167 1260.17 113C1259.5 115.833 1257.67 118.333 1254.67 120.5C1252.34 122.167 1249.75 122.75 1246.92 122.25C1244.09 121.583 1241.5 120.083 1239.17 117.75C1231 109.083 1220.84 104.75 1208.67 104.75C1200.17 104.75 1192.67 106.75 1186.17 110.75C1179.67 114.583 1174.59 120 1170.92 127C1167.25 134 1165.42 142.25 1165.42 151.75C1165.42 160.75 1167.25 168.75 1170.92 175.75C1174.75 182.75 1180 188.333 1186.67 192.5C1193.34 196.5 1201.09 198.5 1209.92 198.5C1215.75 198.5 1220.84 197.833 1225.17 196.5C1229.67 195 1233.75 192.75 1237.42 189.75C1240.09 187.583 1242.84 186.417 1245.67 186.25C1248.5 185.917 1251 186.667 1253.17 188.5C1256 190.833 1257.59 193.5 1257.92 196.5C1258.25 199.333 1257.25 201.917 1254.92 204.25C1242.92 215.417 1227.92 221 1209.92 221ZM1335.57 221.25C1324.07 221.25 1313.73 218.833 1304.57 214C1295.57 209 1288.4 201.75 1283.07 192.25C1277.9 182.75 1275.32 171.083 1275.32 157.25V95.75C1275.32 92.0833 1276.48 89.0833 1278.82 86.75C1281.32 84.25 1284.4 83 1288.07 83C1291.73 83 1294.73 84.25 1297.07 86.75C1299.57 89.0833 1300.82 92.0833 1300.82 95.75V157.25C1300.82 166.583 1302.57 174.333 1306.07 180.5C1309.57 186.5 1314.32 191 1320.32 194C1326.32 196.833 1333.07 198.25 1340.57 198.25C1347.73 198.25 1354.07 196.833 1359.57 194C1365.23 191.167 1369.73 187.333 1373.07 182.5C1376.4 177.667 1378.07 172.25 1378.07 166.25H1393.82C1393.82 176.583 1391.23 185.917 1386.07 194.25C1381.07 202.583 1374.15 209.167 1365.32 214C1356.65 218.833 1346.73 221.25 1335.57 221.25ZM1390.82 220C1387.15 220 1384.07 218.833 1381.57 216.5C1379.23 214 1378.07 210.917 1378.07 207.25V95.75C1378.07 91.9167 1379.23 88.8333 1381.57 86.5C1384.07 84.1667 1387.15 83 1390.82 83C1394.65 83 1397.73 84.1667 1400.07 86.5C1402.4 88.8333 1403.57 91.9167 1403.57 95.75V207.25C1403.57 210.917 1402.4 214 1400.07 216.5C1397.73 218.833 1394.65 220 1390.82 220ZM1460.98 220C1453.64 220 1447.14 218 1441.48 214C1435.81 210 1431.39 204.583 1428.23 197.75C1425.06 190.75 1423.48 182.75 1423.48 173.75V37.25C1423.48 33.5833 1424.64 30.5833 1426.98 28.25C1429.31 25.9167 1432.31 24.75 1435.98 24.75C1439.64 24.75 1442.64 25.9167 1444.98 28.25C1447.31 30.5833 1448.48 33.5833 1448.48 37.25V173.75C1448.48 179.917 1449.64 185 1451.98 189C1454.31 193 1457.31 195 1460.98 195H1467.23C1470.56 195 1473.23 196.167 1475.23 198.5C1477.39 200.833 1478.48 203.833 1478.48 207.5C1478.48 211.167 1476.89 214.167 1473.73 216.5C1470.56 218.833 1466.48 220 1461.48 220H1460.98ZM1540.11 221C1526.28 221 1513.94 218.083 1503.11 212.25C1492.44 206.25 1484.03 198.083 1477.86 187.75C1471.86 177.25 1468.86 165.25 1468.86 151.75C1468.86 138.083 1471.69 126.083 1477.36 115.75C1483.19 105.25 1491.19 97.0833 1501.36 91.25C1511.53 85.25 1523.19 82.25 1536.36 82.25C1549.36 82.25 1560.53 85.1667 1569.86 91C1579.19 96.6667 1586.28 104.583 1591.11 114.75C1596.11 124.75 1598.61 136.333 1598.61 149.5C1598.61 152.667 1597.53 155.333 1595.36 157.5C1593.19 159.5 1590.44 160.5 1587.11 160.5H1486.36V140.5H1586.36L1576.11 147.5C1575.94 139.167 1574.28 131.75 1571.11 125.25C1567.94 118.583 1563.44 113.333 1557.61 109.5C1551.78 105.667 1544.69 103.75 1536.36 103.75C1526.86 103.75 1518.69 105.833 1511.86 110C1505.19 114.167 1500.11 119.917 1496.61 127.25C1493.11 134.417 1491.36 142.583 1491.36 151.75C1491.36 160.917 1493.44 169.083 1497.61 176.25C1501.78 183.417 1507.53 189.083 1514.86 193.25C1522.19 197.417 1530.61 199.5 1540.11 199.5C1545.28 199.5 1550.53 198.583 1555.86 196.75C1561.36 194.75 1565.78 192.5 1569.11 190C1571.61 188.167 1574.28 187.25 1577.11 187.25C1580.11 187.083 1582.69 187.917 1584.86 189.75C1587.69 192.25 1589.19 195 1589.36 198C1589.53 201 1588.19 203.583 1585.36 205.75C1579.69 210.25 1572.61 213.917 1564.11 216.75C1555.78 219.583 1547.78 221 1540.11 221ZM1623.38 134.5C1623.38 124.5 1625.8 115.583 1630.63 107.75C1635.63 99.75 1642.3 93.4167 1650.63 88.75C1658.97 84.0833 1668.13 81.75 1678.13 81.75C1688.13 81.75 1695.55 83.4167 1700.38 86.75C1705.38 89.9167 1707.3 93.75 1706.13 98.25C1705.63 100.583 1704.63 102.417 1703.13 103.75C1701.8 104.917 1700.22 105.667 1698.38 106C1696.55 106.333 1694.55 106.25 1692.38 105.75C1681.72 103.583 1672.13 103.417 1663.63 105.25C1655.13 107.083 1648.38 110.5 1643.38 115.5C1638.55 120.5 1636.13 126.833 1636.13 134.5H1623.38ZM1623.63 220C1619.63 220 1616.55 219 1614.38 217C1612.22 214.833 1611.13 211.667 1611.13 207.5V95.75C1611.13 91.75 1612.22 88.6667 1614.38 86.5C1616.55 84.3333 1619.63 83.25 1623.63 83.25C1627.8 83.25 1630.88 84.3333 1632.88 86.5C1635.05 88.5 1636.13 91.5833 1636.13 95.75V207.5C1636.13 211.5 1635.05 214.583 1632.88 216.75C1630.88 218.917 1627.8 220 1623.63 220Z" fill="white"/>
</svg>
