<svg width="346" height="72" viewBox="0 0 346 72" fill="none" xmlns="http://www.w3.org/2000/svg">
<path d="M49.4508 39.6552H10.7745V25.3106C10.7745 22.209 11.2902 19.6429 12.3216 17.6121C13.3529 15.5814 14.7711 14.0675 16.576 13.0706C18.3809 12.0737 20.4068 11.5752 22.6537 11.5752C24.7901 11.5752 26.7607 12.0552 28.5656 13.0152C30.3337 13.9752 31.7702 15.4706 32.8753 17.5013C33.9436 19.5321 34.4776 22.1352 34.4776 25.3106V32.566H49.4508V39.6552ZM28.7314 32.566V25.7537C28.7314 23.2798 28.1974 21.5075 27.1291 20.4367C26.024 19.329 24.5322 18.7752 22.6537 18.7752C20.7383 18.7752 19.2465 19.329 18.1783 20.4367C17.0732 21.5075 16.5207 23.2798 16.5207 25.7537V32.566H28.7314Z" fill="#2D70FD"/>
<path d="M27.9025 32.5664H66.5787V46.911C66.5787 50.0126 66.063 52.5788 65.0317 54.6095C64.0004 56.6402 62.5821 58.1541 60.7773 59.151C58.9725 60.1479 56.9464 60.6464 54.6996 60.6464C52.5633 60.6464 50.5924 60.1665 48.7876 59.2064C47.0196 58.2463 45.583 56.7509 44.478 54.7203C43.4097 52.6896 42.8757 50.0865 42.8757 46.911V39.6556H27.9025V32.5664ZM48.6219 39.6556V46.4679C48.6219 48.9417 49.1559 50.714 50.2242 51.7849C51.3292 52.8926 52.821 53.4464 54.6996 53.4464C56.6149 53.4464 58.1067 52.8926 59.175 51.7849C60.28 50.714 60.8325 48.9417 60.8325 46.4679V39.6556H48.6219Z" fill="#2D70FD"/>
<path d="M22.6528 60.646C26.0094 60.646 28.7305 57.9184 28.7305 54.5537C28.7305 51.189 26.0094 48.4614 22.6528 48.4614C19.2962 48.4614 16.5751 51.189 16.5751 54.5537C16.5751 57.9184 19.2962 60.646 22.6528 60.646Z" fill="#FFD166"/>
<path d="M54.6993 23.8155C58.0559 23.8155 60.777 21.0879 60.777 17.7232C60.777 14.3585 58.0559 11.6309 54.6993 11.6309C51.3427 11.6309 48.6216 14.3585 48.6216 17.7232C48.6216 21.0879 51.3427 23.8155 54.6993 23.8155Z" fill="#00D8A7"/>
<path d="M91.8834 54.8305V16.0613H106.194C109.288 16.0613 111.848 16.5782 113.874 17.6121C115.899 18.6459 117.41 20.0675 118.404 21.8767C119.399 23.6859 119.896 25.7167 119.896 27.969C119.896 30.1104 119.417 32.086 118.46 33.8952C117.502 35.6675 116.01 37.1075 113.984 38.2152C111.958 39.286 109.361 39.8213 106.194 39.8213H98.9557V54.8305H91.8834ZM98.9557 34.0613H105.752C108.219 34.0613 109.987 33.526 111.056 32.4552C112.161 31.3475 112.713 29.8521 112.713 27.969C112.713 26.049 112.161 24.5536 111.056 23.4828C109.987 22.3752 108.219 21.8213 105.752 21.8213H98.9557V34.0613ZM123.897 54.8305V27.3598H130.196L130.859 32.5105C131.854 30.7382 133.198 29.3351 134.893 28.3013C136.624 27.2305 138.65 26.6952 140.97 26.6952V34.1721H138.981C137.434 34.1721 136.053 34.4122 134.837 34.8921C133.622 35.372 132.664 36.2028 131.964 37.3844C131.301 38.566 130.97 40.209 130.97 42.3136V54.8305H123.897ZM157.087 55.4951C154.435 55.4951 152.041 54.8859 149.904 53.6675C147.805 52.449 146.129 50.7689 144.876 48.6275C143.661 46.4489 143.053 43.9383 143.053 41.0951C143.053 38.252 143.679 35.7597 144.931 33.6182C146.184 31.4397 147.86 29.7413 149.959 28.5228C152.096 27.3044 154.49 26.6952 157.142 26.6952C159.757 26.6952 162.115 27.3044 164.214 28.5228C166.351 29.7413 168.027 31.4397 169.242 33.6182C170.495 35.7597 171.121 38.252 171.121 41.0951C171.121 43.9383 170.495 46.4489 169.242 48.6275C168.027 50.7689 166.351 52.449 164.214 53.6675C162.078 54.8859 159.702 55.4951 157.087 55.4951ZM157.087 49.3475C158.929 49.3475 160.531 48.6643 161.894 47.2982C163.257 45.8951 163.938 43.8275 163.938 41.0951C163.938 38.3627 163.257 36.3135 161.894 34.9475C160.531 33.5443 158.947 32.8428 157.142 32.8428C155.264 32.8428 153.643 33.5443 152.28 34.9475C150.954 36.3135 150.291 38.3627 150.291 41.0951C150.291 43.8275 150.954 45.8951 152.28 47.2982C153.643 48.6643 155.245 49.3475 157.087 49.3475ZM188.661 55.4951C186.082 55.4951 183.78 54.8674 181.754 53.6121C179.728 52.3568 178.126 50.6399 176.947 48.4613C175.768 46.2827 175.179 43.809 175.179 41.0398C175.179 38.2705 175.768 35.8151 176.947 33.6736C178.126 31.4951 179.728 29.7967 181.754 28.5782C183.78 27.3229 186.082 26.6952 188.661 26.6952C190.723 26.6952 192.528 27.0828 194.075 27.8582C195.622 28.6336 196.875 29.7228 197.832 31.1259V14.9536H204.905V54.8305H198.606L197.832 50.8982C196.948 52.1167 195.769 53.1875 194.296 54.1105C192.86 55.0335 190.981 55.4951 188.661 55.4951ZM190.152 49.2921C192.436 49.2921 194.296 48.5352 195.733 47.0213C197.206 45.4705 197.943 43.4952 197.943 41.0951C197.943 38.6951 197.206 36.7383 195.733 35.2244C194.296 33.6736 192.436 32.8982 190.152 32.8982C187.905 32.8982 186.045 33.6551 184.572 35.169C183.098 36.6829 182.362 38.6397 182.362 41.0398C182.362 43.4399 183.098 45.4152 184.572 46.9659C186.045 48.5167 187.905 49.2921 190.152 49.2921ZM221.002 55.4951C217.576 55.4951 214.924 54.4243 213.045 52.2828C211.204 50.1414 210.283 47.0028 210.283 42.8675V27.3598H217.3V42.2028C217.3 44.5658 217.779 46.3752 218.736 47.6305C219.694 48.8858 221.204 49.5136 223.267 49.5136C225.219 49.5136 226.822 48.8122 228.074 47.409C229.363 46.0058 230.008 44.0491 230.008 41.5382V27.3598H237.08V54.8305H230.836L230.284 50.1782C229.437 51.8029 228.203 53.0951 226.582 54.0551C224.998 55.0152 223.138 55.4951 221.002 55.4951ZM256.385 55.4951C253.585 55.4951 251.117 54.8859 248.981 53.6675C246.845 52.449 245.15 50.7506 243.898 48.5721C242.682 46.3935 242.075 43.9012 242.075 41.0951C242.075 38.2891 242.682 35.7968 243.898 33.6182C245.15 31.4397 246.845 29.7413 248.981 28.5228C251.117 27.3044 253.585 26.6952 256.385 26.6952C259.884 26.6952 262.831 27.6182 265.225 29.4644C267.619 31.2735 269.148 33.7844 269.811 36.9967H262.352C261.984 35.6675 261.247 34.6337 260.142 33.8952C259.074 33.1198 257.803 32.7321 256.33 32.7321C254.377 32.7321 252.72 33.4706 251.357 34.9475C249.994 36.4243 249.313 38.4735 249.313 41.0951C249.313 43.7168 249.994 45.766 251.357 47.2428C252.72 48.7197 254.377 49.4582 256.33 49.4582C257.803 49.4582 259.074 49.0891 260.142 48.3505C261.247 47.612 261.984 46.5597 262.352 45.1936H269.811C269.148 48.2952 267.619 50.7875 265.225 52.6705C262.831 54.5536 259.884 55.4951 256.385 55.4951ZM286.541 54.8305C283.668 54.8305 281.364 54.1291 279.635 52.7259C277.902 51.3227 277.038 48.8304 277.038 45.249V33.2859H272.34V27.3598H277.038L277.866 19.9936H284.11V27.3598H291.514V33.2859H284.11V45.3044C284.11 46.6336 284.386 47.5566 284.939 48.0736C285.527 48.5535 286.522 48.7936 287.922 48.7936H291.348V54.8305H286.541ZM308.819 55.4951C306.056 55.4951 303.606 54.9045 301.47 53.7228C299.332 52.5412 297.658 50.8797 296.442 48.7382C295.227 46.5968 294.619 44.1227 294.619 41.3167C294.619 38.4735 295.207 35.9444 296.387 33.729C297.602 31.5136 299.26 29.7967 301.36 28.5782C303.495 27.3229 306.001 26.6952 308.874 26.6952C311.562 26.6952 313.938 27.2859 316.001 28.4675C318.062 29.6491 319.664 31.2735 320.808 33.3413C321.985 35.372 322.576 37.6427 322.576 40.1536C322.576 40.5599 322.557 40.9844 322.521 41.4275C322.521 41.8705 322.502 42.3322 322.466 42.8121H301.636C301.782 44.9535 302.52 46.6336 303.846 47.8521C305.208 49.0705 306.846 49.6798 308.763 49.6798C310.2 49.6798 311.396 49.366 312.355 48.7382C313.349 48.0736 314.084 47.2243 314.565 46.1905H321.747C321.231 47.926 320.366 49.5136 319.151 50.9536C317.971 52.3568 316.499 53.4645 314.73 54.2767C312.998 55.0889 311.029 55.4951 308.819 55.4951ZM308.874 32.4552C307.142 32.4552 305.614 32.9536 304.288 33.9505C302.962 34.9106 302.114 36.3875 301.746 38.3813H315.394C315.283 36.5722 314.62 35.1322 313.404 34.0613C312.189 32.9904 310.678 32.4552 308.874 32.4552ZM327.143 54.8305V27.3598H333.441L334.105 32.5105C335.099 30.7382 336.442 29.3351 338.138 28.3013C339.867 27.2305 341.895 26.6952 344.216 26.6952V34.1721H342.227C340.679 34.1721 339.298 34.4122 338.083 34.8921C336.867 35.372 335.908 36.2028 335.21 37.3844C334.547 38.566 334.215 40.209 334.215 42.3136V54.8305H327.143Z" fill="#2D70FD"/>
</svg>
