<svg width="126" height="49" viewBox="0 0 126 49" fill="none" xmlns="http://www.w3.org/2000/svg">
<path d="M6.95044 38.244V37.8137L8.73012 37.3835C9.91657 37.1253 10.5098 36.4083 10.5098 35.2323V10.7084H6.82022C5.74951 10.7084 4.98266 10.9952 4.51966 11.5688C4.05665 12.1138 3.56471 12.8739 3.04382 13.8491L1.48119 16.8608H1.04712L1.26415 9.84786H26.3098L26.4835 16.8608H26.0494L24.4868 13.8491C23.9948 12.8739 23.5173 12.1138 23.0543 11.5688C22.5913 10.9952 21.8245 10.7084 20.7538 10.7084H17.0642V35.2323C17.0642 36.4083 17.6574 37.1253 18.8439 37.3835L20.6236 37.8137V38.244H6.95044ZM35.9366 38.8893C33.7373 38.8893 31.8274 38.4447 30.2069 37.5556C28.5864 36.6377 27.3276 35.347 26.4305 33.6834C25.5624 32.0198 25.1283 30.0693 25.1283 27.8321C25.1283 25.5948 25.5913 23.6587 26.5173 22.0238C27.4723 20.3888 28.76 19.1268 30.3805 18.2376C32.03 17.3484 33.882 16.9039 35.9366 16.9039C37.9912 16.9039 39.8287 17.3484 41.4492 18.2376C43.0698 19.0981 44.343 20.3458 45.269 21.9807C46.224 23.6157 46.7015 25.5661 46.7015 27.8321C46.7015 30.098 46.2529 32.0628 45.3559 33.7264C44.4877 35.3613 43.2434 36.6377 41.6229 37.5556C40.0313 38.4447 38.1359 38.8893 35.9366 38.8893ZM35.9366 38.0288C36.9494 38.0288 37.7597 37.742 38.3674 37.1684C38.9751 36.5947 39.4091 35.5765 39.6696 34.1136C39.959 32.6508 40.1036 30.5856 40.1036 27.9181C40.1036 25.2219 39.959 23.1424 39.6696 21.6796C39.4091 20.2167 38.9751 19.1985 38.3674 18.6248C37.7597 18.0512 36.9494 17.7644 35.9366 17.7644C34.9238 17.7644 34.099 18.0512 33.4624 18.6248C32.8547 19.1985 32.4062 20.2167 32.1168 21.6796C31.8564 23.1424 31.7261 25.2219 31.7261 27.9181C31.7261 30.5856 31.8564 32.6508 32.1168 34.1136C32.4062 35.5765 32.8547 36.5947 33.4624 37.1684C34.099 37.742 34.9238 38.0288 35.9366 38.0288ZM59.8442 38.8893C57.645 38.8893 55.7351 38.4447 54.1145 37.5556C52.494 36.6377 51.2352 35.347 50.3382 33.6834C49.47 32.0198 49.036 30.0693 49.036 27.8321C49.036 25.5948 49.499 23.6587 50.425 22.0238C51.3799 20.3888 52.6677 19.1268 54.2882 18.2376C55.9376 17.3484 57.7896 16.9039 59.8442 16.9039C61.8986 16.9039 63.7361 17.3484 65.3566 18.2376C66.9772 19.0981 68.2504 20.3458 69.1764 21.9807C70.1314 23.6157 70.6089 25.5661 70.6089 27.8321C70.6089 30.098 70.1603 32.0628 69.2632 33.7264C68.3951 35.3613 67.1508 36.6377 65.5303 37.5556C63.9387 38.4447 62.0433 38.8893 59.8442 38.8893ZM59.8442 38.0288C60.8568 38.0288 61.6671 37.742 62.2748 37.1684C62.8825 36.5947 63.3165 35.5765 63.577 34.1136C63.8663 32.6508 64.011 30.5856 64.011 27.9181C64.011 25.2219 63.8663 23.1424 63.577 21.6796C63.3165 20.2167 62.8825 19.1985 62.2748 18.6248C61.6671 18.0512 60.8568 17.7644 59.8442 17.7644C58.8314 17.7644 58.0067 18.0512 57.37 18.6248C56.7624 19.1985 56.3138 20.2167 56.0244 21.6796C55.764 23.1424 55.6338 25.2219 55.6338 27.9181C55.6338 30.5856 55.764 32.6508 56.0244 34.1136C56.3138 35.5765 56.7624 36.5947 57.37 37.1684C58.0067 37.742 58.8314 38.0288 59.8442 38.0288ZM72.4765 38.244V37.8137L72.9974 37.6416C74.0392 37.2974 74.5601 36.5804 74.5601 35.4904V12.4724C74.5601 11.8987 74.4443 11.4684 74.2128 11.1816C73.9813 10.8661 73.5762 10.6366 72.9974 10.4932L72.4331 10.3642V9.93391L80.3766 8.08386L80.8974 8.47108L80.7238 14.4945V29.2088C80.7238 30.2701 80.7238 31.3314 80.7238 32.3926C80.7528 33.4252 80.7672 34.4578 80.7672 35.4904C80.7672 36.0641 80.883 36.5373 81.1145 36.9102C81.346 37.2544 81.7366 37.5125 82.2865 37.6846L82.8508 37.8137V38.244H72.4765ZM92.2754 38.8893C90.8575 38.8893 89.5842 38.7172 88.4556 38.373C87.3271 38.0575 86.2853 37.656 85.3304 37.1684L85.3738 32.0484H85.8078L87.2837 34.6299C87.9203 35.7772 88.6148 36.6377 89.3672 37.2114C90.1485 37.7564 91.1324 38.0288 92.3188 38.0288C93.7079 38.0288 94.822 37.7277 95.6612 37.1253C96.5293 36.4943 96.9634 35.6625 96.9634 34.6299C96.9634 33.6834 96.6595 32.9089 96.0518 32.3066C95.4441 31.7043 94.3155 31.1593 92.6661 30.6717L90.843 30.1124C89.0778 29.5961 87.6888 28.7929 86.676 27.703C85.6631 26.613 85.1567 25.2793 85.1567 23.7017C85.1567 21.8086 85.9091 20.2024 87.4139 18.883C88.9186 17.5636 91.0745 16.9039 93.8815 16.9039C95.0101 16.9039 96.0663 17.0329 97.0502 17.2911C98.063 17.5205 99.0324 17.8791 99.9584 18.3667L99.698 23.0133H99.2639L97.7447 20.3458C97.1949 19.3993 96.645 18.7396 96.0952 18.3667C95.5743 17.9651 94.7786 17.7644 93.7079 17.7644C92.724 17.7644 91.798 18.0368 90.9298 18.5818C90.0617 19.1268 89.6276 19.9012 89.6276 20.9051C89.6276 21.8804 89.9893 22.6548 90.7128 23.2284C91.4652 23.8021 92.5648 24.3327 94.0117 24.8204L95.965 25.3797C98.0485 26.0107 99.5388 26.8855 100.436 28.0042C101.333 29.0941 101.782 30.4135 101.782 31.9624C101.782 34.0563 100.942 35.7342 99.2639 36.9963C97.6145 38.2583 95.285 38.8893 92.2754 38.8893ZM107.411 48.5698C106.254 48.5698 105.328 48.283 104.633 47.7093C103.968 47.1357 103.635 46.4043 103.635 45.5151C103.635 44.712 103.924 44.0666 104.503 43.579C105.082 43.0914 105.733 42.8476 106.456 42.8476C107.18 42.8476 107.787 42.991 108.279 43.2778C108.771 43.5933 109.205 44.0379 109.581 44.6116L109.885 44.9558C110.522 45.8163 111.159 45.8019 111.795 44.9127C112.056 44.4825 112.345 43.9088 112.663 43.1918C113.011 42.5034 113.401 41.5712 113.835 40.3952L105.414 20.4319C105.212 19.8869 104.995 19.4566 104.763 19.1411C104.532 18.7969 104.156 18.5101 103.635 18.2806L102.853 17.9795V17.5492H113.662V17.9364L112.794 18.2806C112.157 18.4814 111.824 18.8113 111.795 19.2702C111.795 19.7004 111.911 20.2454 112.142 20.9051L116.657 32.5217L120.954 20.7761C121.186 20.1164 121.272 19.5714 121.214 19.1411C121.157 18.6822 120.795 18.3667 120.129 18.1946L119.218 17.9795V17.5492H125.251V17.9795L124.296 18.2806C123.631 18.4814 123.168 18.7683 122.907 19.1411C122.647 19.514 122.401 20.0303 122.169 20.69L115.181 39.5777C114.052 42.5894 112.924 44.841 111.795 46.3326C110.667 47.8241 109.205 48.5698 107.411 48.5698Z" fill="#F1641F"/>
</svg>
